<svg width="25" height="25" viewBox="0 0 25 25" fill="none" xmlns="http://www.w3.org/2000/svg">
<path fill-rule="evenodd" clip-rule="evenodd" d="M4.27031 21.8695C4.72812 22.239 5.4 22.1703 5.76875 21.7117C6.13984 21.2547 6.07031 20.5828 5.6125 20.2117C5.15547 19.8414 4.48437 19.9125 4.1125 20.3695C3.76094 20.8031 3.80625 21.4289 4.20234 21.8101L3.99453 21.6273C1.54062 19.3453 0 16.0914 0 12.4828C0 5.59999 5.6 0 12.4844 0C15.9844 0 19.1484 1.45078 21.418 3.77812C21.9336 3.07656 22.3805 2.29219 22.7461 1.42266C24.3367 6.20234 25.2719 10.2195 24.9297 13.3836C24.4672 19.8476 19.0641 24.9695 12.4844 24.9695C9.42812 24.9695 6.62812 23.8633 4.45625 22.0344L4.27031 21.8695ZM22.6922 17.9773C25.825 13.8086 24.0789 7.06718 22.6258 2.75859C21.3312 5.45625 18.143 7.51953 15.3898 8.17265C12.8094 8.78827 10.5258 8.28359 8.1375 9.20234C2.69219 11.2961 2.77812 17.7898 5.77812 19.2492C5.77968 19.2492 5.95781 19.3461 5.95547 19.343C5.95547 19.3414 10.3648 18.4664 12.8023 17.5664C16.3648 16.2508 20.2758 13.0078 21.5625 9.24062C20.8773 13.1586 17.5141 16.9281 14.1351 18.6594C12.3367 19.5828 10.9383 19.7883 7.9789 20.8125C7.6164 20.9359 7.33203 21.0578 7.33203 21.0578C8.08203 20.9328 8.82968 20.8922 8.82968 20.8922C13.043 20.693 19.6164 22.0765 22.693 17.9781L22.6922 17.9773Z" fill="#70AD51"/>
</svg>
