<svg width="157" height="56" viewBox="0 0 157 56" fill="none" xmlns="http://www.w3.org/2000/svg">
<path d="M17.3643 11.3V24H15.5443V11.3H10.8243V9.68H22.0443V11.3H17.3643ZM25.9765 17.48V22.38H34.4165V24H24.1565V9.68H34.0765V11.3H25.9765V15.86H33.7765V17.48H25.9765ZM48.502 14.06H46.622C46.422 13.1 46.0753 12.4 45.582 11.96C44.942 11.3733 44.0086 11.08 42.782 11.08C41.2886 11.08 40.1353 11.6667 39.322 12.84C38.6153 13.8667 38.262 15.2133 38.262 16.88C38.262 18.76 38.7353 20.22 39.682 21.26C40.522 22.1533 41.602 22.6 42.922 22.6C44.5353 22.6 45.6486 22.0067 46.262 20.82C46.542 20.2733 46.762 19.5467 46.922 18.64H48.802C48.362 22.36 46.4086 24.22 42.942 24.22C41.0753 24.22 39.602 23.6733 38.522 22.58C37.1353 21.18 36.442 19.3 36.442 16.94C36.442 14.6467 37.1086 12.76 38.442 11.28C39.5353 10.0667 41.042 9.46 42.962 9.46C46.082 9.46 47.9286 10.9933 48.502 14.06ZM60.5016 17.48H53.1216V24H51.3016V9.68H53.1216V15.86H60.5016V9.68H62.3216V24H60.5016V17.48ZM67.6813 9.68V24H65.8213V9.68H67.6813ZM82.0101 9.68V24H79.9701L72.5501 12.38V24H70.8301V9.68H72.8101L80.2901 21.38V9.68H82.0101ZM88.2416 28.28V13.72H89.7616V15.3C90.5216 14.1 91.615 13.5 93.0416 13.5C94.495 13.5 95.615 14.06 96.4016 15.18C97.095 16.1533 97.4416 17.4333 97.4416 19.02C97.4416 20.7133 96.9883 22.0333 96.0816 22.98C95.295 23.8067 94.275 24.22 93.0216 24.22C91.755 24.22 90.7083 23.76 89.8816 22.84V28.28H88.2416ZM92.7616 15.02C91.895 15.02 91.195 15.3733 90.6616 16.08C90.1416 16.7867 89.8816 17.7333 89.8816 18.92C89.8816 20.1467 90.1816 21.1067 90.7816 21.8C91.2883 22.3867 91.9483 22.68 92.7616 22.68C93.6683 22.68 94.3883 22.34 94.9216 21.66C95.4683 20.9667 95.7416 20.0533 95.7416 18.92C95.7416 17.6667 95.435 16.68 94.8216 15.96C94.275 15.3333 93.5883 15.02 92.7616 15.02ZM99.4596 13.72H100.98V15.6C101.58 14.1867 102.526 13.48 103.82 13.48C103.98 13.48 104.173 13.5 104.4 13.54V15.22C103.333 15.2333 102.6 15.3867 102.2 15.68C101.466 16.2133 101.1 17.2067 101.1 18.66V24H99.4596V13.72ZM110.043 13.5C111.589 13.5 112.769 14.04 113.583 15.12C114.303 16.0533 114.663 17.32 114.663 18.92C114.663 20.7067 114.196 22.0667 113.263 23C112.463 23.8133 111.383 24.22 110.023 24.22C108.449 24.22 107.249 23.6933 106.423 22.64C105.703 21.72 105.343 20.48 105.343 18.92C105.343 17.1067 105.816 15.7133 106.763 14.74C107.576 13.9133 108.669 13.5 110.043 13.5ZM110.043 15C109.109 15 108.376 15.3533 107.843 16.06C107.309 16.7533 107.043 17.7067 107.043 18.92C107.043 20.1867 107.343 21.1533 107.943 21.82C108.463 22.4067 109.156 22.7 110.023 22.7C110.943 22.7 111.656 22.3667 112.163 21.7C112.683 21.0333 112.943 20.1067 112.943 18.92C112.943 17.6133 112.649 16.6133 112.063 15.92C111.556 15.3067 110.883 15 110.043 15ZM116.921 13.72H118.561V26.14C118.561 27.5667 117.614 28.28 115.721 28.28C115.521 28.28 115.347 28.26 115.201 28.22V26.84C115.307 26.84 115.407 26.84 115.501 26.84H115.581C116.101 26.84 116.454 26.7467 116.641 26.56C116.827 26.3733 116.921 26.02 116.921 25.5V13.72ZM117.701 9.78C117.981 9.78 118.214 9.88 118.401 10.08C118.587 10.2667 118.681 10.4933 118.681 10.76C118.681 11.0267 118.587 11.26 118.401 11.46C118.214 11.6467 117.981 11.74 117.701 11.74C117.434 11.74 117.201 11.6467 117.001 11.46C116.814 11.26 116.721 11.0267 116.721 10.76C116.721 10.4933 116.814 10.2667 117.001 10.08C117.201 9.88 117.434 9.78 117.701 9.78ZM129.976 19.34H122.396C122.409 20.22 122.596 20.92 122.956 21.44C123.529 22.28 124.356 22.7 125.436 22.7C126.769 22.7 127.669 22.0667 128.136 20.8H129.776C129.563 21.88 129.069 22.72 128.296 23.32C127.523 23.92 126.549 24.22 125.376 24.22C123.816 24.22 122.623 23.6867 121.796 22.62C121.063 21.6867 120.696 20.4533 120.696 18.92C120.696 17.1467 121.176 15.7667 122.136 14.78C122.976 13.9267 124.063 13.5 125.396 13.5C126.369 13.5 127.223 13.7333 127.956 14.2C128.703 14.6667 129.236 15.3067 129.556 16.12C129.836 16.8133 129.976 17.8667 129.976 19.28V19.34ZM128.216 18C128.216 17.1067 127.949 16.3867 127.416 15.84C126.896 15.28 126.223 15 125.396 15C124.556 15 123.869 15.2733 123.336 15.82C122.816 16.3533 122.523 17.08 122.456 18H128.216ZM140.074 17.16H138.434C138.234 15.72 137.421 15 135.994 15C135.101 15 134.401 15.3533 133.894 16.06C133.387 16.7667 133.134 17.7467 133.134 19C133.134 20.24 133.434 21.1867 134.034 21.84C134.541 22.4133 135.221 22.7 136.074 22.7C137.447 22.7 138.267 21.9533 138.534 20.46H140.194C140.087 21.74 139.627 22.7067 138.814 23.36C138.107 23.9333 137.181 24.22 136.034 24.22C134.527 24.22 133.354 23.6867 132.514 22.62C131.794 21.7 131.434 20.4933 131.434 19C131.434 17.2133 131.907 15.8133 132.854 14.8C133.667 13.9333 134.721 13.5 136.014 13.5C137.507 13.5 138.627 14 139.374 15C139.761 15.52 139.994 16.24 140.074 17.16ZM146.058 13.72V15.04H143.958V21.88C143.958 22.12 144.038 22.3267 144.198 22.5C144.372 22.66 144.592 22.74 144.858 22.74C145.112 22.74 145.498 22.68 146.018 22.56L146.198 24C145.372 24.1467 144.745 24.22 144.318 24.22C142.998 24.22 142.338 23.68 142.338 22.6V15.04H140.938V13.72H142.338V11.62L143.958 10.88V13.72H146.058Z" fill="black"/>
<path d="M33.5519 38.35H32.2619C32.2319 36.95 31.3369 36.25 29.5769 36.25C28.8569 36.25 28.2769 36.415 27.8369 36.745C27.3969 37.065 27.1769 37.49 27.1769 38.02C27.1769 38.42 27.3069 38.74 27.5669 38.98C27.8369 39.21 28.2969 39.41 28.9469 39.58L31.4969 40.24C33.1169 40.67 33.9269 41.57 33.9269 42.94C33.9269 43.93 33.5319 44.735 32.7419 45.355C32.0419 45.895 31.0369 46.165 29.7269 46.165C28.0669 46.165 26.8619 45.665 26.1119 44.665C25.7119 44.125 25.5019 43.4 25.4819 42.49H26.7719V42.52C26.7719 43.3 27.0369 43.905 27.5669 44.335C28.1069 44.755 28.8569 44.965 29.8169 44.965C30.6969 44.965 31.3519 44.82 31.7819 44.53C32.2919 44.18 32.5469 43.69 32.5469 43.06C32.5469 42.26 31.8919 41.695 30.5819 41.365L27.9119 40.675C26.5119 40.315 25.8119 39.49 25.8119 38.2C25.8119 37.18 26.1969 36.39 26.9669 35.83C27.6369 35.34 28.5219 35.095 29.6219 35.095C31.1819 35.095 32.2969 35.55 32.9669 36.46C33.3569 36.99 33.5519 37.565 33.5519 38.185C33.5519 38.215 33.5519 38.27 33.5519 38.35ZM38.656 38.125C39.816 38.125 40.701 38.53 41.311 39.34C41.851 40.04 42.121 40.99 42.121 42.19C42.121 43.53 41.771 44.55 41.071 45.25C40.471 45.86 39.661 46.165 38.641 46.165C37.461 46.165 36.561 45.77 35.941 44.98C35.401 44.29 35.131 43.36 35.131 42.19C35.131 40.83 35.486 39.785 36.196 39.055C36.806 38.435 37.626 38.125 38.656 38.125ZM38.656 39.25C37.956 39.25 37.406 39.515 37.006 40.045C36.606 40.565 36.406 41.28 36.406 42.19C36.406 43.14 36.631 43.865 37.081 44.365C37.471 44.805 37.991 45.025 38.641 45.025C39.331 45.025 39.866 44.775 40.246 44.275C40.636 43.775 40.831 43.08 40.831 42.19C40.831 41.21 40.611 40.46 40.171 39.94C39.791 39.48 39.286 39.25 38.656 39.25ZM46.5894 38.29V39.28H45.3144V46H44.0994V39.28H43.0644V38.29H44.0994V36.97C44.0994 36.42 44.2544 35.99 44.5644 35.68C44.8844 35.37 45.3294 35.215 45.8994 35.215C46.1194 35.215 46.3494 35.24 46.5894 35.29V36.31H46.4544C46.3444 36.3 46.2494 36.295 46.1694 36.295C45.5994 36.295 45.3144 36.555 45.3144 37.075V38.29H46.5894ZM50.946 38.29V39.28H49.371V44.41C49.371 44.59 49.431 44.745 49.551 44.875C49.681 44.995 49.846 45.055 50.046 45.055C50.236 45.055 50.526 45.01 50.916 44.92L51.051 46C50.431 46.11 49.961 46.165 49.641 46.165C48.651 46.165 48.156 45.76 48.156 44.95V39.28H47.106V38.29H48.156V36.715L49.371 36.16V38.29H50.946ZM59.5091 46H58.1141L56.5391 39.94L55.0541 46H53.6741L51.4391 38.29H52.7891L54.3791 44.29L55.8491 38.29H57.3491L58.8641 44.29L60.3941 38.29H61.7741L59.5091 46ZM69.8589 44.965V45.955C69.5189 46.075 69.2539 46.135 69.0639 46.135C68.2639 46.135 67.8289 45.77 67.7589 45.04C67.2089 45.79 66.3339 46.165 65.1339 46.165C64.3039 46.165 63.6589 45.935 63.1989 45.475C62.7989 45.075 62.5989 44.56 62.5989 43.93C62.5989 43.21 62.8539 42.655 63.3639 42.265C63.6539 42.045 64.2589 41.83 65.1789 41.62L67.6989 41.05L67.7139 40.405C67.7139 39.635 67.1339 39.25 65.9739 39.25C64.8639 39.25 64.2689 39.7 64.1889 40.6H62.9439C62.9739 39.92 63.1439 39.4 63.4539 39.04C63.9839 38.43 64.8439 38.125 66.0339 38.125C67.9639 38.125 68.9289 38.825 68.9289 40.225V44.53C68.9289 44.91 69.0939 45.1 69.4239 45.1C69.4639 45.1 69.5689 45.07 69.7389 45.01C69.7989 44.99 69.8389 44.975 69.8589 44.965ZM67.7139 42.055L65.7339 42.565C65.0239 42.745 64.5339 42.93 64.2639 43.12C64.0039 43.31 63.8739 43.575 63.8739 43.915C63.8739 44.705 64.3839 45.1 65.4039 45.1C66.1239 45.1 66.7339 44.865 67.2339 44.395C67.5539 44.105 67.7139 43.775 67.7139 43.405V42.055ZM71.1924 38.29H72.3324V39.7C72.7824 38.64 73.4924 38.11 74.4624 38.11C74.5824 38.11 74.7274 38.125 74.8974 38.155V39.415C74.0974 39.425 73.5474 39.54 73.2474 39.76C72.6974 40.16 72.4224 40.905 72.4224 41.995V46H71.1924V38.29ZM82.6246 42.505H76.9396C76.9496 43.165 77.0896 43.69 77.3596 44.08C77.7896 44.71 78.4096 45.025 79.2196 45.025C80.2196 45.025 80.8946 44.55 81.2446 43.6H82.4746C82.3146 44.41 81.9446 45.04 81.3646 45.49C80.7846 45.94 80.0546 46.165 79.1746 46.165C78.0046 46.165 77.1096 45.765 76.4896 44.965C75.9396 44.265 75.6646 43.34 75.6646 42.19C75.6646 40.86 76.0246 39.825 76.7446 39.085C77.3746 38.445 78.1896 38.125 79.1896 38.125C79.9196 38.125 80.5596 38.3 81.1096 38.65C81.6696 39 82.0696 39.48 82.3096 40.09C82.5196 40.61 82.6246 41.4 82.6246 42.46V42.505ZM81.3046 41.5C81.3046 40.83 81.1046 40.29 80.7046 39.88C80.3146 39.46 79.8096 39.25 79.1896 39.25C78.5596 39.25 78.0446 39.455 77.6446 39.865C77.2546 40.265 77.0346 40.81 76.9846 41.5H81.3046ZM88.722 41.455V46H87.357V35.26H91.797C92.927 35.26 93.777 35.57 94.347 36.19C94.847 36.73 95.097 37.47 95.097 38.41C95.097 39.36 94.792 40.115 94.182 40.675C93.622 41.195 92.927 41.455 92.097 41.455H88.722ZM88.722 40.24H91.587C92.237 40.24 92.747 40.075 93.117 39.745C93.487 39.415 93.672 38.95 93.672 38.35C93.672 37.76 93.487 37.3 93.117 36.97C92.747 36.64 92.237 36.475 91.587 36.475H88.722V40.24ZM96.8711 38.29H98.0111V39.7C98.4611 38.64 99.1711 38.11 100.141 38.11C100.261 38.11 100.406 38.125 100.576 38.155V39.415C99.7761 39.425 99.2261 39.54 98.9261 39.76C98.3761 40.16 98.1011 40.905 98.1011 41.995V46H96.8711V38.29ZM104.808 38.125C105.968 38.125 106.853 38.53 107.463 39.34C108.003 40.04 108.273 40.99 108.273 42.19C108.273 43.53 107.923 44.55 107.223 45.25C106.623 45.86 105.813 46.165 104.793 46.165C103.613 46.165 102.713 45.77 102.093 44.98C101.553 44.29 101.283 43.36 101.283 42.19C101.283 40.83 101.638 39.785 102.348 39.055C102.958 38.435 103.778 38.125 104.808 38.125ZM104.808 39.25C104.108 39.25 103.558 39.515 103.158 40.045C102.758 40.565 102.558 41.28 102.558 42.19C102.558 43.14 102.783 43.865 103.233 44.365C103.623 44.805 104.143 45.025 104.793 45.025C105.483 45.025 106.018 44.775 106.398 44.275C106.788 43.775 106.983 43.08 106.983 42.19C106.983 41.21 106.763 40.46 106.323 39.94C105.943 39.48 105.438 39.25 104.808 39.25ZM109.967 38.29H111.197V47.605C111.197 48.675 110.487 49.21 109.067 49.21C108.917 49.21 108.787 49.195 108.677 49.165V48.13C108.757 48.13 108.832 48.13 108.902 48.13H108.962C109.352 48.13 109.617 48.06 109.757 47.92C109.897 47.78 109.967 47.515 109.967 47.125V38.29ZM110.552 35.335C110.762 35.335 110.937 35.41 111.077 35.56C111.217 35.7 111.287 35.87 111.287 36.07C111.287 36.27 111.217 36.445 111.077 36.595C110.937 36.735 110.762 36.805 110.552 36.805C110.352 36.805 110.177 36.735 110.027 36.595C109.887 36.445 109.817 36.27 109.817 36.07C109.817 35.87 109.887 35.7 110.027 35.56C110.177 35.41 110.352 35.335 110.552 35.335ZM119.758 42.505H114.073C114.083 43.165 114.223 43.69 114.493 44.08C114.923 44.71 115.543 45.025 116.353 45.025C117.353 45.025 118.028 44.55 118.378 43.6H119.608C119.448 44.41 119.078 45.04 118.498 45.49C117.918 45.94 117.188 46.165 116.308 46.165C115.138 46.165 114.243 45.765 113.623 44.965C113.073 44.265 112.798 43.34 112.798 42.19C112.798 40.86 113.158 39.825 113.878 39.085C114.508 38.445 115.323 38.125 116.323 38.125C117.053 38.125 117.693 38.3 118.243 38.65C118.803 39 119.203 39.48 119.443 40.09C119.653 40.61 119.758 41.4 119.758 42.46V42.505ZM118.438 41.5C118.438 40.83 118.238 40.29 117.838 39.88C117.448 39.46 116.943 39.25 116.323 39.25C115.693 39.25 115.178 39.455 114.778 39.865C114.388 40.265 114.168 40.81 114.118 41.5H118.438ZM127.332 40.87H126.102C125.952 39.79 125.342 39.25 124.272 39.25C123.602 39.25 123.077 39.515 122.697 40.045C122.317 40.575 122.127 41.31 122.127 42.25C122.127 43.18 122.352 43.89 122.802 44.38C123.182 44.81 123.692 45.025 124.332 45.025C125.362 45.025 125.977 44.465 126.177 43.345H127.422C127.342 44.305 126.997 45.03 126.387 45.52C125.857 45.95 125.162 46.165 124.302 46.165C123.172 46.165 122.292 45.765 121.662 44.965C121.122 44.275 120.852 43.37 120.852 42.25C120.852 40.91 121.207 39.86 121.917 39.1C122.527 38.45 123.317 38.125 124.287 38.125C125.407 38.125 126.247 38.5 126.807 39.25C127.097 39.64 127.272 40.18 127.332 40.87ZM131.82 38.29V39.28H130.245V44.41C130.245 44.59 130.305 44.745 130.425 44.875C130.555 44.995 130.72 45.055 130.92 45.055C131.11 45.055 131.4 45.01 131.79 44.92L131.925 46C131.305 46.11 130.835 46.165 130.515 46.165C129.525 46.165 129.03 45.76 129.03 44.95V39.28H127.98V38.29H129.03V36.715L130.245 36.16V38.29H131.82Z" fill="black"/>
</svg>
