<svg width="28" height="26" viewBox="0 0 28 26" fill="none" xmlns="http://www.w3.org/2000/svg">
<path d="M0 2.8C0 2.05739 0.294999 1.3452 0.820101 0.8201C1.3452 0.294999 2.05739 0 2.8 0H25.2C25.9426 0 26.6548 0.294999 27.1799 0.8201C27.705 1.3452 28 2.05739 28 2.8V22.4C28 23.1426 27.705 23.8548 27.1799 24.3799C26.6548 24.905 25.9426 25.2 25.2 25.2H2.8C2.05739 25.2 1.3452 24.905 0.820101 24.3799C0.294999 23.8548 0 23.1426 0 22.4V2.8ZM8.4 2.8H2.8V22.4H8.4V2.8ZM11.2 2.8V22.4H16.8V2.8H11.2ZM19.6 2.8V22.4H25.2V2.8H19.6Z" fill="#0D0D0D"/>
</svg>
