<svg width="29" height="24" viewBox="0 0 29 24" fill="none" xmlns="http://www.w3.org/2000/svg">
<path d="M2.27628 23.4231H6.36624V11.9034L2.27628 13.9849V23.4231Z" fill="black"/>
<path d="M7.61347 11.2703V23.4231H11.7024V16.193L8.52503 10.8057L7.61347 11.2703Z" fill="black"/>
<path d="M12.9486 23.4231H17.0396V14.9891L12.9486 18.3056V23.4231Z" fill="black"/>
<path d="M18.2858 23.4231H22.3757V10.6616L18.2858 13.979V23.4231Z" fill="black"/>
<path d="M23.6208 9.6515V23.4231H27.7119V11.1164L24.9646 8.56353L23.6208 9.6515Z" fill="black"/>
<path d="M13.5601 15.7196L25.038 6.32914L26.9786 8.13106L29 0L20.2442 1.87595L22.0526 3.55807L14.6563 9.60962L10.8034 3.3282L0 8.82456L2.02243 12.255L9.19428 8.60638L13.5601 15.7196Z" fill="black"/>
</svg>
