<svg width="30" height="26" viewBox="0 0 30 26" fill="none" xmlns="http://www.w3.org/2000/svg">
<path d="M28.5616 6.22309H16.4018L18.0556 5.23786C18.1737 5.16753 18.2442 5.05185 18.2442 4.92828V1.37668C18.2442 1.16868 18.048 1 17.8058 1H11.9604C11.7182 1 11.5219 1.16863 11.5219 1.37668V4.92837C11.5219 5.05678 11.5981 5.17636 11.724 5.24562L13.5017 6.22309H1.43843C1.19627 6.22309 1 6.39172 1 6.59977V24.6797C1 24.8877 1.19622 25.0563 1.43843 25.0563H28.5616C28.8037 25.0563 29 24.8877 29 24.6797V6.59977C29 6.39172 28.8038 6.22309 28.5616 6.22309ZM14.5616 21.6915H3.98123V19.4315H14.5616L14.5616 21.6915ZM14.5616 16.6693H3.98123V14.4093H14.5616L14.5616 16.6693ZM14.5616 11.647H3.98123V9.38707H14.5616L14.5616 11.647ZM14.5616 8.63375H3.5428C3.30065 8.63375 3.10438 8.80238 3.10438 9.01043V12.0238C3.10438 12.2318 3.30059 12.4005 3.5428 12.4005H14.5616V13.656H3.5428C3.30065 13.656 3.10438 13.8246 3.10438 14.0327V17.046C3.10438 17.254 3.30059 17.4227 3.5428 17.4227H14.5616V18.6782H3.5428C3.30065 18.6782 3.10438 18.8468 3.10438 19.0549V22.0682C3.10438 22.2762 3.30059 22.4449 3.5428 22.4449H14.5616V24.3031H1.8768V6.9764H14.5616V8.63375ZM14.9903 6.14721L12.3988 4.7222V1.75336H17.3675V4.73118L14.9903 6.14721ZM15.4384 9.38707H17.6013V11.647H15.4384V9.38707ZM15.4384 14.4093H21.5762V16.6693H15.4384V14.4093ZM15.4384 19.4315H25.0835V21.6915H15.4384V19.4315ZM28.1232 24.303H15.4384V22.4448H25.5219C25.7641 22.4448 25.9604 22.2762 25.9604 22.0681V19.0548C25.9604 18.8468 25.7641 18.6781 25.5219 18.6781H15.4384V17.4226H22.0146C22.2568 17.4226 22.453 17.254 22.453 17.0459V14.0326C22.453 13.8246 22.2568 13.6559 22.0146 13.6559H15.4384V12.4004H18.0397C18.2819 12.4004 18.4781 12.2317 18.4781 12.0237V9.01034C18.4781 8.80234 18.2819 8.63366 18.0397 8.63366H15.4384V6.97636H28.1232V24.303Z" fill="black" stroke="black"/>
</svg>
