<svg width="27" height="31" viewBox="0 0 27 31" fill="none" xmlns="http://www.w3.org/2000/svg">
<path d="M2.38889 5.57895H21.8333V4.81579C21.8333 3.55135 20.9006 2.52632 19.75 2.52632H4.47222C3.32163 2.52632 2.38889 3.55135 2.38889 4.81579V5.57895ZM1 6.34211V4.81579C1 2.70839 2.55457 1 4.47222 1H19.75C21.6677 1 23.2222 2.70839 23.2222 4.81579V6.34211C23.2222 6.76359 22.9113 7.10526 22.5278 7.10526H1.69444C1.31091 7.10526 1 6.76359 1 6.34211ZM1 13.9737V9.39474C1 8.97326 1.31091 8.63158 1.69444 8.63158H22.5278C22.9113 8.63158 23.2222 8.97326 23.2222 9.39474V13.9737C23.2222 14.3952 22.9113 14.7368 22.5278 14.7368H1.69444C1.31091 14.7368 1 14.3952 1 13.9737ZM2.38889 13.2105H21.8333V10.1579H2.38889V13.2105ZM3.77778 21.6053V17.0263C3.77778 16.6048 4.08869 16.2632 4.47222 16.2632H25.3056C25.6891 16.2632 26 16.6048 26 17.0263V21.6053C26 22.0267 25.6891 22.3684 25.3056 22.3684H4.47222C4.08869 22.3684 3.77778 22.0267 3.77778 21.6053ZM5.16667 20.8421H24.6111V17.7895H5.16667V20.8421ZM1 26.1842V24.6579C1 24.2364 1.31091 23.8947 1.69444 23.8947H22.5278C22.9113 23.8947 23.2222 24.2364 23.2222 24.6579V26.1842C23.2222 28.2916 21.6677 30 19.75 30H4.47222C2.55457 30 1 28.2916 1 26.1842ZM2.38889 25.4211V26.1842C2.38889 27.4487 3.32163 28.4737 4.47222 28.4737H19.75C20.9006 28.4737 21.8333 27.4487 21.8333 26.1842V25.4211H2.38889Z" fill="black" stroke="black"/>
</svg>
