<svg width="30" height="30" viewBox="0 0 30 30" fill="none" xmlns="http://www.w3.org/2000/svg">
<path fill-rule="evenodd" clip-rule="evenodd" d="M13.7 28C13.0192 28 12.4385 27.5073 12.3276 26.8356C12.2255 26.2922 11.8343 25.8481 11.308 25.6786C10.8792 25.5313 10.4599 25.3577 10.0526 25.1586C9.5679 24.9106 8.98646 24.9478 8.53716 25.2551C7.99345 25.6461 7.24653 25.5855 6.77288 25.1121L4.93059 23.2699C4.43478 22.774 4.37036 21.9923 4.7783 21.422C5.09291 20.9624 5.13823 20.3697 4.89716 19.8676C4.73832 19.5188 4.59821 19.1617 4.47745 18.7979C4.30448 18.2246 3.82705 17.7952 3.23872 17.6836C2.52928 17.5703 2.00552 16.961 2.00002 16.2424V13.9377C1.99625 13.1096 2.59438 12.4013 3.41145 12.2663C4.03129 12.1484 4.54888 11.7238 4.78573 11.139C4.8563 10.9743 4.93059 10.8109 5.00859 10.6487C5.3236 10.0422 5.28009 9.31178 4.89529 8.747C4.41409 8.07821 4.48798 7.15931 5.06987 6.576L6.42373 5.22214C7.09147 4.55417 8.14457 4.46772 8.9123 5.01786L8.95501 5.04757C9.52828 5.43341 10.2578 5.5033 10.8939 5.23329C11.5744 4.98835 12.076 4.40359 12.2143 3.69371L12.233 3.63057C12.3857 2.6908 13.1973 2.00039 14.1495 2H15.7838C16.7615 1.99955 17.596 2.70677 17.756 3.67143L17.7857 3.80143C17.917 4.48146 18.3926 5.04427 19.0411 5.28714C19.6663 5.55544 20.3851 5.48537 20.9467 5.10143L21.0394 5.03457C21.827 4.46692 22.9101 4.55422 23.5968 5.24071L24.8429 6.48871C25.4674 7.11673 25.5459 8.1043 25.0286 8.82314C24.6232 9.42397 24.5716 10.196 24.893 10.8456L24.973 11.0313C25.2331 11.6655 25.7964 12.1251 26.4697 12.2533C27.3499 12.3968 27.9971 13.1557 28 14.0473V16.1143C27.9998 16.9006 27.431 17.5714 26.6554 17.7003C26.0175 17.8227 25.4979 18.2845 25.3015 18.9037C25.2149 19.1513 25.1183 19.399 25.0118 19.6466C24.764 20.1907 24.819 20.8247 25.1568 21.318C25.6023 21.9379 25.5331 22.7894 24.9933 23.3293L23.2644 25.0601C22.7699 25.5545 21.9901 25.6182 21.4221 25.2106C20.9478 24.8865 20.3335 24.8508 19.825 25.1177C19.4625 25.2973 19.0905 25.4566 18.7107 25.595C18.1794 25.7783 17.7878 26.2329 17.6855 26.7854C17.5771 27.4806 16.9811 27.9948 16.2777 28H13.7Z" stroke="black" stroke-width="3" stroke-linecap="round" stroke-linejoin="round"/>
<path fill-rule="evenodd" clip-rule="evenodd" d="M19.3459 15C19.3459 17.3929 17.4046 19.3327 15.0099 19.3327C12.6151 19.3327 10.6739 17.3929 10.6739 15C10.6739 12.6071 12.6151 10.6673 15.0099 10.6673C17.4046 10.6673 19.3459 12.6071 19.3459 15Z" stroke="black" stroke-width="3" stroke-linecap="round" stroke-linejoin="round"/>
</svg>
